<svg width="17" height="21" viewBox="0 0 17 21" fill="none" xmlns="http://www.w3.org/2000/svg">
<path fill-rule="evenodd" clip-rule="evenodd" d="M3.4165 5.89943C3.4165 3.07115 5.69283 1.5 7.55525 1.5C10.0175 1.5 12.0018 3.47612 12.0018 5.89943C12.0018 6.94477 11.3886 8.44027 10.4846 9.64232C10.0185 10.2621 9.79602 11.0824 9.83022 11.8464C9.86434 12.6085 10.1656 13.4449 10.9085 13.9438L14.6582 16.4622C14.7647 16.5551 14.9197 16.743 15.0532 16.9799C15.2024 17.2449 15.2497 17.438 15.2497 17.5039V18.6667H7.55525V20.1667H16.7497V17.5039C16.7497 17.0539 16.5547 16.5893 16.3601 16.2437C16.1582 15.8854 15.8792 15.5187 15.5788 15.2769L15.5536 15.2566L11.7448 12.6986C11.5197 12.5474 11.3492 12.2357 11.3287 11.7793C11.3084 11.3248 11.4486 10.8561 11.6834 10.5439C12.6941 9.20002 13.5018 7.39193 13.5018 5.89943C13.5018 2.63483 10.833 0 7.55525 0C4.97351 0 1.9165 2.13767 1.9165 5.89943C1.9165 7.74397 2.53044 8.93827 3.19414 9.87932C3.35505 10.1075 3.51861 10.3205 3.66974 10.5163L3.70203 10.5581L3.70208 10.5582C3.84341 10.7413 3.97145 10.9071 4.09005 11.0725C4.34417 11.427 4.51934 11.7323 4.61325 12.0539L6.05309 11.6333C5.88993 11.0747 5.60324 10.6088 5.30916 10.1986C5.17423 10.0104 5.03026 9.82394 4.89255 9.64561L4.85722 9.59985C4.7059 9.40378 4.56023 9.2137 4.41994 9.01479C3.87884 8.24757 3.4165 7.34991 3.4165 5.89943ZM2.58333 20.75L2.58333 18.1666H0V16.6666H2.58334L2.58334 14.0833H4.08334L4.08334 16.6666H6.66647V18.1666H4.08333L4.08333 20.75L2.58333 20.75Z" fill="#B3B3B3"/>
</svg>
