<svg width="18" height="18" viewBox="0 0 18 18" fill="none" xmlns="http://www.w3.org/2000/svg">
<path fill-rule="evenodd" clip-rule="evenodd" d="M0.291417 16.2446C-0.110566 16.6597 -0.0947151 17.3172 0.32682 17.713C0.748356 18.1089 1.41595 18.0933 1.81793 17.6782L9.00009 10.2614L16.1822 17.6782C16.5842 18.0933 17.2518 18.1089 17.6734 17.713C18.0949 17.3172 18.1107 16.6597 17.7088 16.2446L10.4574 8.75641L17.237 1.75538C17.639 1.34026 17.6231 0.682837 17.2016 0.286978C16.78 -0.108883 16.1125 -0.0932722 15.7105 0.321841L9.00009 7.25145L2.2897 0.321841C1.88772 -0.0932722 1.22012 -0.108883 0.798587 0.286978C0.377051 0.682837 0.3612 1.34026 0.763183 1.75538L7.54274 8.75641L0.291417 16.2446Z" fill="#B3B3B3"/>
</svg>
