<svg width="25" height="28" viewBox="0 0 25 28" fill="none" xmlns="http://www.w3.org/2000/svg">
<path d="M25 26.842C25 27.3943 24.5523 27.842 24 27.842H16.2778C15.7255 27.842 15.2778 27.3943 15.2778 26.842V18.8947C15.2778 18.3424 14.8301 17.8947 14.2778 17.8947H10.7222C10.1699 17.8947 9.7222 18.3424 9.7222 18.8947V26.842C9.7222 27.3943 9.27448 27.842 8.7222 27.842H1C0.447716 27.842 0 27.3943 0 26.842V7.73973C0 7.38476 0.188173 7.0564 0.494433 6.87694L11.9962 0.137277C12.3075 -0.0451339 12.6929 -0.0457084 13.0047 0.135775L24.503 6.82747C24.8107 7.00655 25 7.33573 25 7.69176V26.842Z" fill="white"/>
</svg>
